{"accessors":[{"bufferView":0,"byteOffset":0,"componentType":5126,"count":120,"max":[10.8669996261597,1.5,7.53249979019165],"min":[-10.8669996261597,-1.5,-7.53249979019165],"normalized":false,"type":"VEC3"},{"bufferView":1,"byteOffset":0,"componentType":5126,"count":120,"max":[0.0,0.0,1.0,1.0],"min":[-1.0,-1.0,-1.0,-1.0],"normalized":false,"type":"VEC4"},{"bufferView":2,"byteOffset":0,"componentType":5126,"count":120,"max":[1.0,1.0,1.0],"min":[-1.0,-1.0,-1.0],"normalized":false,"type":"VEC3"},{"bufferView":3,"byteOffset":0,"componentType":5126,"count":120,"max":[1.0,1.0],"min":[0.0,0.0],"normalized":false,"type":"VEC2"},{"bufferView":4,"byteOffset":0,"componentType":5123,"count":120,"max":[119.0],"min":[0.0],"normalized":false,"type":"SCALAR"},{"bufferView":5,"byteOffset":0,"componentType":5126,"count":36,"max":[6.5,1.5,5.22200012207031],"min":[1.34664916992188,-1.5,-5.22200012207031],"normalized":false,"type":"VEC3"},{"bufferView":6,"byteOffset":0,"componentType":5126,"count":36,"max":[0.0,0.0,0.0000763009302318096,1.0],"min":[-1.0,-1.0,-1.0,-1.0],"normalized":false,"type":"VEC4"},{"bufferView":7,"byteOffset":0,"componentType":5126,"count":36,"max":[1.0,1.0,1.0],"min":[-1.0,-1.0,-1.0],"normalized":false,"type":"VEC3"},{"bufferView":8,"byteOffset":0,"componentType":5126,"count":36,"max":[1.0,1.0],"min":[0.0,0.0],"normalized":false,"type":"VEC2"},{"bufferView":9,"byteOffset":0,"componentType":5123,"count":36,"max":[35.0],"min":[0.0],"normalized":false,"type":"SCALAR"},{"bufferView":10,"byteOffset":0,"componentType":5126,"count":96,"max":[13.3234996795654,1.5,9.61299991607666],"min":[-13.3234996795654,-1.5,-9.61299991607666],"normalized":false,"type":"VEC3"},{"bufferView":11,"byteOffset":0,"componentType":5126,"count":96,"max":[0.0,0.0,0.0000763009302318096,1.0],"min":[-1.0,-1.0,-1.0,-1.0],"normalized":false,"type":"VEC4"},{"bufferView":12,"byteOffset":0,"componentType":5126,"count":96,"max":[1.0,1.0,1.0],"min":[-1.0,-1.0,-1.0],"normalized":false,"type":"VEC3"},{"bufferView":13,"byteOffset":0,"componentType":5126,"count":96,"max":[1.0,1.0],"min":[0.0,0.0],"normalized":false,"type":"VEC2"},{"bufferView":14,"byteOffset":0,"componentType":5123,"count":96,"max":[95.0],"min":[0.0],"normalized":false,"type":"SCALAR"},{"bufferView":15,"byteOffset":0,"componentType":5126,"count":36,"max":[4.8600001335144,1.5,-1.75506687164307],"min":[-4.8600001335144,-1.5,-15.3385000228882],"normalized":false,"type":"VEC3"},{"bufferView":16,"byteOffset":0,"componentType":5126,"count":36,"max":[0.0,0.0,0.0000763009302318096,1.0],"min":[-1.0,-1.0,-1.0,-1.0],"normalized":false,"type":"VEC4"},{"bufferView":17,"byteOffset":0,"componentType":5126,"count":36,"max":[1.0,1.0,1.0],"min":[-1.0,-1.0,-1.0],"normalized":false,"type":"VEC3"},{"bufferView":18,"byteOffset":0,"componentType":5126,"count":36,"max":[1.0,1.0],"min":[0.0,0.0],"normalized":false,"type":"VEC2"},{"bufferView":19,"byteOffset":0,"componentType":5123,"count":36,"max":[35.0],"min":[0.0],"normalized":false,"type":"SCALAR"},{"bufferView":20,"byteOffset":0,"componentType":5126,"count":504,"max":[27.8735427856445,4.5,5.93212890625],"min":[-35.8278160095215,-1.5,-32.2347793579102],"normalized":false,"type":"VEC3"},{"bufferView":21,"byteOffset":0,"componentType":5126,"count":504,"max":[0.0,0.0,1.0,1.0],"min":[-1.0,-1.0,-1.0,1.0],"normalized":false,"type":"VEC4"},{"bufferView":22,"byteOffset":0,"componentType":5126,"count":504,"max":[1.0,1.0,1.0],"min":[-1.0,-1.0,-1.0],"normalized":false,"type":"VEC3"},{"bufferView":23,"byteOffset":0,"componentType":5126,"count":504,"max":[1.0,1.0],"min":[0.0,0.0],"normalized":false,"type":"VEC2"},{"bufferView":24,"byteOffset":0,"componentType":5123,"count":504,"max":[503.0],"min":[0.0],"normalized":false,"type":"SCALAR"}],"asset":{"generator":"Godot Engine v4.4.1.stable.steam@49a5bc7b616bd04689a2c89e89bda41f50241464","version":"2.0"},"bufferViews":[{"buffer":0,"byteLength":1440,"byteOffset":0,"byteStride":12,"target":34962},{"buffer":0,"byteLength":1920,"byteOffset":1440,"byteStride":16,"target":34962},{"buffer":0,"byteLength":1440,"byteOffset":3360,"byteStride":12,"target":34962},{"buffer":0,"byteLength":960,"byteOffset":4800,"byteStride":8,"target":34962},{"buffer":0,"byteLength":240,"byteOffset":5760,"target":34963},{"buffer":0,"byteLength":432,"byteOffset":6000,"byteStride":12,"target":34962},{"buffer":0,"byteLength":576,"byteOffset":6432,"byteStride":16,"target":34962},{"buffer":0,"byteLength":432,"byteOffset":7008,"byteStride":12,"target":34962},{"buffer":0,"byteLength":288,"byteOffset":7440,"byteStride":8,"target":34962},{"buffer":0,"byteLength":72,"byteOffset":7728,"target":34963},{"buffer":0,"byteLength":1152,"byteOffset":7800,"byteStride":12,"target":34962},{"buffer":0,"byteLength":1536,"byteOffset":8952,"byteStride":16,"target":34962},{"buffer":0,"byteLength":1152,"byteOffset":10488,"byteStride":12,"target":34962},{"buffer":0,"byteLength":768,"byteOffset":11640,"byteStride":8,"target":34962},{"buffer":0,"byteLength":192,"byteOffset":12408,"target":34963},{"buffer":0,"byteLength":432,"byteOffset":12600,"byteStride":12,"target":34962},{"buffer":0,"byteLength":576,"byteOffset":13032,"byteStride":16,"target":34962},{"buffer":0,"byteLength":432,"byteOffset":13608,"byteStride":12,"target":34962},{"buffer":0,"byteLength":288,"byteOffset":14040,"byteStride":8,"target":34962},{"buffer":0,"byteLength":72,"byteOffset":14328,"target":34963},{"buffer":0,"byteLength":6048,"byteOffset":14400,"byteStride":12,"target":34962},{"buffer":0,"byteLength":8064,"byteOffset":20448,"byteStride":16,"target":34962},{"buffer":0,"byteLength":6048,"byteOffset":28512,"byteStride":12,"target":34962},{"buffer":0,"byteLength":4032,"byteOffset":34560,"byteStride":8,"target":34962},{"buffer":0,"byteLength":1008,"byteOffset":38592,"target":34963}],"buffers":[{"byteLength":39600,"uri":"main_level0.bin"}],"extensions":{"KHR_lights_punctual":{"lights":[{"type":"directional"}]}},"extensionsUsed":["GODOT_single_root","KHR_lights_punctual"],"images":[{"uri":"textures%2F_albedo000.png"}],"materials":[{"extensions":{},"pbrMetallicRoughness":{"baseColorFactor":[0.0440094955265522,0.0440094955265522,0.0440094955265522,1.0],"baseColorTexture":{"index":0},"metallicFactor":0.0,"roughnessFactor":1.0}}],"meshes":[{"extras":{"targetNames":[]},"primitives":[{"attributes":{"NORMAL":2,"POSITION":0,"TANGENT":1,"TEXCOORD_0":3},"indices":4,"material":0,"mode":4}]},{"extras":{"targetNames":[]},"primitives":[{"attributes":{"NORMAL":7,"POSITION":5,"TANGENT":6,"TEXCOORD_0":8},"indices":9,"material":0,"mode":4}]},{"extras":{"targetNames":[]},"primitives":[{"attributes":{"NORMAL":12,"POSITION":10,"TANGENT":11,"TEXCOORD_0":13},"indices":14,"material":0,"mode":4}]},{"extras":{"targetNames":[]},"primitives":[{"attributes":{"NORMAL":17,"POSITION":15,"TANGENT":16,"TEXCOORD_0":18},"indices":19,"material":0,"mode":4}]},{"extras":{"targetNames":[]},"primitives":[{"attributes":{"NORMAL":22,"POSITION":20,"TANGENT":21,"TEXCOORD_0":23},"indices":24,"material":0,"mode":4}]}],"nodes":[{"children":[1,2,3,6,8,10,12,23],"name":"MainLevel"},{"extensions":{"KHR_lights_punctual":{"light":0}},"name":"DirectionalLight3D","rotation":[-0.129410669207573,0.836515367031097,0.482963532209396,0.22414530813694]},{"name":"WorldEnvironment"},{"children":[4,5],"mesh":0,"name":"Overhang2","translation":[-20.3320903778076,1.5,9.96381759643555]},{"name":"Overhang22","translation":[1.4732494354248,0.0,1.93959045410156]},{"name":"Corridor3","rotation":[0.0,0.70710676908493,0.0,0.70710676908493],"translation":[-5.29387283325195,-0.25,-7.42758464813232]},{"children":[7],"mesh":1,"name":"Overhang24","translation":[-25.3279991149902,1.5,-6.16300010681152]},{"name":"Overhang3","translation":[-2.57667541503906,0.0,0.0]},{"children":[9],"mesh":2,"name":"Overhang33","translation":[1.0460000038147,1.5,-10.5539999008179]},{"name":"Overhang4","translation":[-0.0766334533691406,0.0,0.0525426864624023]},{"children":[11],"mesh":3,"name":"Overhang43","translation":[27.0139999389648,1.5,-1.93299996852875]},{"name":"Overhang5","translation":[0.0,0.0,6.79171657562256]},{"children":[13],"mesh":4,"name":"Room2","translation":[4.0,1.5,12.06787109375]},{"children":[14,15,16,17,18,19,20,21,22],"name":"CSGCombiner3D"},{"name":"Room22","translation":[-24.3570003509521,1.5,-2.09899997711182]},{"name":"Corridor","translation":[-9.78418254852295,-0.25,0.0744028091430664]},{"name":"Room3","translation":[-29.3279113769531,1.5,-18.2308731079102]},{"name":"Corridor2","rotation":[0.0,0.70710676908493,0.0,0.70710676908493],"translation":[-29.6508731842041,-0.25,-10.9375915527344]},{"name":"Corridor4","rotation":[0.0,0.70710676908493,0.0,0.70710676908493],"translation":[-19.5480003356934,2.75,-17.6749992370605]},{"name":"Room4","translation":[-2.95437812805176,1.5,-22.6217956542969]},{"name":"Corridor5","rotation":[0.0,0.70710676908493,0.0,0.70710676908493],"translation":[-11.4060001373291,2.75,-9.30500030517578]},{"name":"Room5","translation":[23.0137767791748,1.5,-14.0012178421021]},{"name":"Corridor6","rotation":[0.0,0.70710676908493,0.0,0.70710676908493],"translation":[14.2580003738403,2.75,-23.6730003356934]},{"name":"Sprite3D","scale":[2.40000009536743,2.40000009536743,2.40000009536743],"translation":[-0.330909729003906,0.100000001490116,-1.31506812572479]}],"samplers":[{"magFilter":9729,"minFilter":9987,"wrapS":10497,"wrapT":10497}],"scene":0,"scenes":[{"nodes":[0]}],"textures":[{"sampler":0,"source":0}]}